<?xml version="1.0" encoding="UTF-8" standalone="no"?><svg xmlns="http://www.w3.org/2000/svg" xmlns:xlink="http://www.w3.org/1999/xlink" contentStyleType="text/css" height="623px" preserveAspectRatio="none" style="width:629px;height:623px;background:#FFFFFF;" version="1.1" viewBox="0 0 629 623" width="629px" zoomAndPan="magnify"><defs/><g><rect fill="none" height="151.2" style="stroke:#000000;stroke-width:1.5;" width="372" x="10" y="134.3999"/><line style="stroke:#181818;stroke-width:0.5;stroke-dasharray:5.0,5.0;" x1="52" x2="52" y1="81.7999" y2="541.8"/><line style="stroke:#181818;stroke-width:0.5;stroke-dasharray:5.0,5.0;" x1="158" x2="158" y1="81.7999" y2="541.8"/><line style="stroke:#181818;stroke-width:0.5;stroke-dasharray:5.0,5.0;" x1="227" x2="227" y1="81.7999" y2="541.8"/><line style="stroke:#181818;stroke-width:0.5;stroke-dasharray:5.0,5.0;" x1="324" x2="324" y1="81.7999" y2="541.8"/><line style="stroke:#181818;stroke-width:0.5;stroke-dasharray:5.0,5.0;" x1="452.5" x2="452.5" y1="81.7999" y2="541.8"/><line style="stroke:#181818;stroke-width:0.5;stroke-dasharray:5.0,5.0;" x1="543" x2="543" y1="81.7999" y2="541.8"/><text fill="#000000" font-family="sans-serif" font-size="14" lengthAdjust="spacing" textLength="59" x="20" y="78.9999">Customer</text><ellipse cx="52.5" cy="13.5" fill="#E2E2F0" rx="8" ry="8" style="stroke:#181818;stroke-width:0.5;"/><path d="M52.5,21.5 L52.5,48.5 M39.5,29.5 L65.5,29.5 M52.5,48.5 L39.5,63.5 M52.5,48.5 L65.5,63.5 " fill="none" style="stroke:#181818;stroke-width:0.5;"/><text fill="#000000" font-family="sans-serif" font-size="14" lengthAdjust="spacing" textLength="59" x="20" y="554.7999">Customer</text><ellipse cx="52.5" cy="566.0999" fill="#E2E2F0" rx="8" ry="8" style="stroke:#181818;stroke-width:0.5;"/><path d="M52.5,574.0999 L52.5,601.0999 M39.5,582.0999 L65.5,582.0999 M52.5,601.0999 L39.5,616.0999 M52.5,601.0999 L65.5,616.0999 " fill="none" style="stroke:#181818;stroke-width:0.5;"/><text fill="#000000" font-family="sans-serif" font-size="14" lengthAdjust="spacing" textLength="75" x="118" y="78.9999">PhoneAgent</text><ellipse cx="158.5" cy="13.5" fill="#E2E2F0" rx="8" ry="8" style="stroke:#181818;stroke-width:0.5;"/><path d="M158.5,21.5 L158.5,48.5 M145.5,29.5 L171.5,29.5 M158.5,48.5 L145.5,63.5 M158.5,48.5 L171.5,63.5 " fill="none" style="stroke:#181818;stroke-width:0.5;"/><text fill="#000000" font-family="sans-serif" font-size="14" lengthAdjust="spacing" textLength="75" x="118" y="554.7999">PhoneAgent</text><ellipse cx="158.5" cy="566.0999" fill="#E2E2F0" rx="8" ry="8" style="stroke:#181818;stroke-width:0.5;"/><path d="M158.5,574.0999 L158.5,601.0999 M145.5,582.0999 L171.5,582.0999 M158.5,601.0999 L145.5,616.0999 M158.5,601.0999 L171.5,616.0999 " fill="none" style="stroke:#181818;stroke-width:0.5;"/><rect fill="#E2E2F0" height="30.7999" rx="2.5" ry="2.5" style="stroke:#181818;stroke-width:0.5;" width="37" x="209" y="50"/><text fill="#000000" font-family="sans-serif" font-size="14" lengthAdjust="spacing" textLength="23" x="216" y="70.9999">Site</text><rect fill="#E2E2F0" height="30.7999" rx="2.5" ry="2.5" style="stroke:#181818;stroke-width:0.5;" width="37" x="209" y="540.8"/><text fill="#000000" font-family="sans-serif" font-size="14" lengthAdjust="spacing" textLength="23" x="216" y="561.7999">Site</text><rect fill="#E2E2F0" height="30.7999" rx="2.5" ry="2.5" style="stroke:#181818;stroke-width:0.5;" width="95" x="277" y="50"/><text fill="#000000" font-family="sans-serif" font-size="14" lengthAdjust="spacing" textLength="81" x="284" y="70.9999">OrderSystem</text><rect fill="#E2E2F0" height="30.7999" rx="2.5" ry="2.5" style="stroke:#181818;stroke-width:0.5;" width="95" x="277" y="540.8"/><text fill="#000000" font-family="sans-serif" font-size="14" lengthAdjust="spacing" textLength="81" x="284" y="561.7999">OrderSystem</text><rect fill="#E2E2F0" height="30.7999" rx="2.5" ry="2.5" style="stroke:#181818;stroke-width:0.5;" width="60" x="422.5" y="50"/><text fill="#000000" font-family="sans-serif" font-size="14" lengthAdjust="spacing" textLength="46" x="429.5" y="70.9999">Kitchen</text><rect fill="#E2E2F0" height="30.7999" rx="2.5" ry="2.5" style="stroke:#181818;stroke-width:0.5;" width="60" x="422.5" y="540.8"/><text fill="#000000" font-family="sans-serif" font-size="14" lengthAdjust="spacing" textLength="46" x="429.5" y="561.7999">Kitchen</text><rect fill="#E2E2F0" height="30.7999" rx="2.5" ry="2.5" style="stroke:#181818;stroke-width:0.5;" width="63" x="512" y="50"/><text fill="#000000" font-family="sans-serif" font-size="14" lengthAdjust="spacing" textLength="49" x="519" y="70.9999">Delivery</text><rect fill="#E2E2F0" height="30.7999" rx="2.5" ry="2.5" style="stroke:#181818;stroke-width:0.5;" width="63" x="512" y="540.8"/><text fill="#000000" font-family="sans-serif" font-size="14" lengthAdjust="spacing" textLength="49" x="519" y="561.7999">Delivery</text><path d="M15,96.7999 L15,121.7999 L362,121.7999 L362,106.7999 L352,96.7999 L15,96.7999 " fill="#FEFFDD" style="stroke:#181818;stroke-width:0.5;"/><path d="M352,96.7999 L352,106.7999 L362,106.7999 L352,96.7999 " fill="#FEFFDD" style="stroke:#181818;stroke-width:0.5;"/><text fill="#000000" font-family="sans-serif" font-size="13" lengthAdjust="spacing" textLength="287" x="40.5" y="114.7999">What proportion of customers prefer web to phone?</text><path d="M10,134.3999 L70,134.3999 L70,142 L60,152 L10,152 L10,134.3999 " fill="#EEEEEE" style="stroke:#000000;stroke-width:1.5;"/><rect fill="none" height="151.2" style="stroke:#000000;stroke-width:1.5;" width="372" x="10" y="134.3999"/><text fill="#000000" font-family="sans-serif" font-size="13" font-weight="bold" lengthAdjust="spacing" textLength="15" x="25" y="148.4">alt</text><text fill="#000000" font-family="sans-serif" font-size="11" font-weight="bold" lengthAdjust="spacing" textLength="87" x="85" y="147.3999">[Web Customer]</text><polygon fill="#181818" points="146.5,169.6,156.5,173.6,146.5,177.6,150.5,173.6" style="stroke:#181818;stroke-width:1.0;"/><line style="stroke:#181818;stroke-width:1.0;" x1="52.5" x2="152.5" y1="173.6" y2="173.6"/><text fill="#000000" font-family="sans-serif" font-size="13" lengthAdjust="spacing" textLength="82" x="59.5" y="169">Order desserts</text><polygon fill="#181818" points="312.5,199.2,322.5,203.2,312.5,207.2,316.5,203.2" style="stroke:#181818;stroke-width:1.0;"/><line style="stroke:#181818;stroke-width:1.0;" x1="158.5" x2="318.5" y1="203.2" y2="203.2"/><text fill="#000000" font-family="sans-serif" font-size="13" lengthAdjust="spacing" textLength="73" x="165.5" y="198.6">Submit order</text><line style="stroke:#000000;stroke-width:1.0;stroke-dasharray:2.0,2.0;" x1="10" x2="382" y1="212.2" y2="212.2"/><text fill="#000000" font-family="sans-serif" font-size="11" font-weight="bold" lengthAdjust="spacing" textLength="97" x="15" y="223.1999">[Phone Customer]</text><polygon fill="#181818" points="215.5,243.9999,225.5,247.9999,215.5,251.9999,219.5,247.9999" style="stroke:#181818;stroke-width:1.0;"/><line style="stroke:#181818;stroke-width:1.0;" x1="52.5" x2="221.5" y1="247.9999" y2="247.9999"/><text fill="#000000" font-family="sans-serif" font-size="13" lengthAdjust="spacing" textLength="82" x="59.5" y="243.3999">Order desserts</text><polygon fill="#181818" points="312.5,273.5999,322.5,277.5999,312.5,281.5999,316.5,277.5999" style="stroke:#181818;stroke-width:1.0;"/><line style="stroke:#181818;stroke-width:1.0;" x1="227.5" x2="318.5" y1="277.5999" y2="277.5999"/><text fill="#000000" font-family="sans-serif" font-size="13" lengthAdjust="spacing" textLength="73" x="234.5" y="272.9999">Submit order</text><polygon fill="#181818" points="440.5,310.1999,450.5,314.1999,440.5,318.1999,444.5,314.1999" style="stroke:#181818;stroke-width:1.0;"/><line style="stroke:#181818;stroke-width:1.0;" x1="324.5" x2="446.5" y1="314.1999" y2="314.1999"/><text fill="#000000" font-family="sans-serif" font-size="13" lengthAdjust="spacing" textLength="85" x="331.5" y="309.5999">New order alert</text><line style="stroke:#181818;stroke-width:1.0;" x1="452.5" x2="494.5" y1="343.7999" y2="343.7999"/><line style="stroke:#181818;stroke-width:1.0;" x1="494.5" x2="494.5" y1="343.7999" y2="356.7999"/><line style="stroke:#181818;stroke-width:1.0;" x1="453.5" x2="494.5" y1="356.7999" y2="356.7999"/><polygon fill="#181818" points="463.5,352.7999,453.5,356.7999,463.5,360.7999,459.5,356.7999" style="stroke:#181818;stroke-width:1.0;"/><text fill="#000000" font-family="sans-serif" font-size="13" lengthAdjust="spacing" textLength="77" x="459.5" y="339.1999">Prepare order</text><polygon fill="#181818" points="335.5,382.4,325.5,386.4,335.5,390.4,331.5,386.4" style="stroke:#181818;stroke-width:1.0;"/><line style="stroke:#181818;stroke-width:1.0;" x1="329.5" x2="451.5" y1="386.4" y2="386.4"/><text fill="#000000" font-family="sans-serif" font-size="13" lengthAdjust="spacing" textLength="104" x="341.5" y="381.7999">Notify of readiness</text><polygon fill="#181818" points="531.5,412,541.5,416,531.5,420,535.5,416" style="stroke:#181818;stroke-width:1.0;"/><line style="stroke:#181818;stroke-width:1.0;" x1="324.5" x2="537.5" y1="416" y2="416"/><text fill="#000000" font-family="sans-serif" font-size="13" lengthAdjust="spacing" textLength="99" x="331.5" y="411.4">New delivery alert</text><path d="M260,429 L260,454 L607,454 L607,439 L597,429 L260,429 " fill="#FEFFDD" style="stroke:#181818;stroke-width:0.5;"/><path d="M597,429 L597,439 L607,439 L597,429 " fill="#FEFFDD" style="stroke:#181818;stroke-width:0.5;"/><text fill="#000000" font-family="sans-serif" font-size="13" lengthAdjust="spacing" textLength="326" x="266" y="447">How many drivers would be need? Can customers collect?</text><line style="stroke:#181818;stroke-width:1.0;" x1="543.5" x2="585.5" y1="481.2" y2="481.2"/><line style="stroke:#181818;stroke-width:1.0;" x1="585.5" x2="585.5" y1="481.2" y2="494.2"/><line style="stroke:#181818;stroke-width:1.0;" x1="544.5" x2="585.5" y1="494.2" y2="494.2"/><polygon fill="#181818" points="554.5,490.2,544.5,494.2,554.5,498.2,550.5,494.2" style="stroke:#181818;stroke-width:1.0;"/><text fill="#000000" font-family="sans-serif" font-size="13" lengthAdjust="spacing" textLength="72" x="550.5" y="476.6">Assign driver</text><polygon fill="#181818" points="63.5,519.8,53.5,523.8,63.5,527.8,59.5,523.8" style="stroke:#181818;stroke-width:1.0;"/><line style="stroke:#181818;stroke-width:1.0;" x1="57.5" x2="542.5" y1="523.8" y2="523.8"/><text fill="#000000" font-family="sans-serif" font-size="13" lengthAdjust="spacing" textLength="83" x="69.5" y="519.2">Deliver dessert</text><!--MD5=[4918339ee008e302effec7bf2f8787d5]
@startuml
actor Customer as c
actor PhoneAgent as a
participant Site as s
participant OrderSystem as o
participant Kitchen as k
participant Delivery as d

note over c,o: What proportion of customers prefer web to phone?

alt Web Customer
  c->a: Order desserts
  a->o: Submit order
else Phone Customer
  c->s: Order desserts
  s->o: Submit order
end
o->k: New order alert
k->k: Prepare order
k->o: Notify of readiness
o->d: New delivery alert
note over o,d: How many drivers would be need? Can customers collect?
d->d: Assign driver
d->c: Deliver dessert

@enduml

PlantUML version 1.2022.8(Sun Sep 25 09:00:33 GMT 2022)
(GPL source distribution)
Java Runtime: OpenJDK Runtime Environment
JVM: OpenJDK 64-Bit Server VM
Default Encoding: UTF-8
Language: en
Country: US
--></g></svg>