<?xml version="1.0" encoding="UTF-8" standalone="no"?><svg xmlns="http://www.w3.org/2000/svg" xmlns:xlink="http://www.w3.org/1999/xlink" contentStyleType="text/css" height="283px" preserveAspectRatio="none" style="width:252px;height:283px;background:#FFFFFF;" version="1.1" viewBox="0 0 252 283" width="252px" zoomAndPan="magnify"><defs/><g><rect fill="#DDDDDD" height="15.4001" style="stroke:#000000;stroke-width:1.0;" width="239" x="6" y="6"/><text fill="#000000" font-family="sans-serif" font-size="12" lengthAdjust="spacing" textLength="82" x="6" y="18.0001">Perfect Pastries</text><text fill="#000000" font-family="sans-serif" font-size="12" lengthAdjust="spacing" textLength="108" x="6" y="34.4002">Tel: (939) 555-0113</text><text fill="#000000" font-family="sans-serif" font-size="12" lengthAdjust="spacing" textLength="152" x="6" y="50.8003">What would you like to order?</text><text fill="#000000" font-family="sans-serif" font-size="12" lengthAdjust="spacing" textLength="43" x="6" y="67.2004">Cannoli:</text><rect fill="#EEEEEE" height="17.4001" style="stroke:#000000;stroke-width:1.0;" width="31" x="6" y="71.6004"/><text fill="#000000" font-family="sans-serif" font-size="12" lengthAdjust="spacing" textLength="13" x="8" y="85.6005">x1</text><line style="stroke:#000000;stroke-width:1.0;" x1="26" x2="26" y1="71.6004" y2="89.0005"/><polygon fill="#000000" points="29,77.6004,35,77.6004,32,84.0005" style="stroke:#000000;stroke-width:1.0;"/><text fill="#000000" font-family="sans-serif" font-size="12" lengthAdjust="spacing" textLength="34" x="6" y="104.0006">Eclair:</text><rect fill="#EEEEEE" height="17.4001" style="stroke:#000000;stroke-width:1.0;" width="31" x="6" y="108.4006"/><text fill="#000000" font-family="sans-serif" font-size="12" lengthAdjust="spacing" textLength="13" x="8" y="122.4007">x1</text><line style="stroke:#000000;stroke-width:1.0;" x1="26" x2="26" y1="108.4006" y2="125.8007"/><polygon fill="#000000" points="29,114.4006,35,114.4006,32,120.8007" style="stroke:#000000;stroke-width:1.0;"/><text fill="#000000" font-family="sans-serif" font-size="12" lengthAdjust="spacing" textLength="47" x="6" y="140.8008">Address:</text><text fill="#000000" font-family="sans-serif" font-size="12" lengthAdjust="spacing" textLength="121" x="7" y="158.2009">768 Evergreen Terrace</text><text fill="#000000" font-family="sans-serif" font-size="12" lengthAdjust="spacing" textLength="57" x="7" y="174.601">Springfield</text><text fill="#000000" font-family="sans-serif" font-size="12" lengthAdjust="spacing" textLength="3" x="10" y="191.0011"> </text><line style="stroke:#000000;stroke-width:1.0;" x1="8" x2="211" y1="193.4011" y2="193.4011"/><line style="stroke:#000000;stroke-width:1.0;" x1="8" x2="8" y1="190.4011" y2="192.4011"/><line style="stroke:#000000;stroke-width:1.0;" x1="211" x2="211" y1="190.4011" y2="192.4011"/><line style="stroke:#000000;stroke-width:1.0;" x1="6" x2="214" y1="145.2008" y2="145.2008"/><line style="stroke:#000000;stroke-width:1.0;" x1="6" x2="214" y1="196.4011" y2="196.4011"/><line style="stroke:#000000;stroke-width:1.0;" x1="6" x2="6" y1="145.2008" y2="161.6009"/><line style="stroke:#000000;stroke-width:1.0;" x1="214" x2="214" y1="161.6009" y2="178.001"/><line style="stroke:#000000;stroke-width:1.0;" x1="214" x2="214" y1="145.2008" y2="161.6009"/><line style="stroke:#000000;stroke-width:1.0;" x1="6" x2="6" y1="178.001" y2="196.4011"/><line style="stroke:#000000;stroke-width:1.0;" x1="6" x2="6" y1="161.6009" y2="178.001"/><line style="stroke:#000000;stroke-width:1.0;" x1="214" x2="214" y1="178.001" y2="196.4011"/><rect fill="none" height="51.2003" style="stroke:#000000;stroke-width:1.0;" width="15" x="218" y="145.2008"/><line style="stroke:#000000;stroke-width:1.0;" x1="218" x2="233" y1="157.2008" y2="157.2008"/><line style="stroke:#000000;stroke-width:1.0;" x1="218" x2="233" y1="184.4011" y2="184.4011"/><path d="M225,149.2008 L228,154.2008 L222,154.2008 L225,149.2008 " fill="#000000" style="stroke:#000000;stroke-width:1.0;"/><path d="M225,193.4011 L228,188.4011 L222,188.4011 L225,193.4011 " fill="#000000" style="stroke:#000000;stroke-width:1.0;"/><text fill="#000000" font-family="sans-serif" font-size="12" lengthAdjust="spacing" textLength="52" x="6" y="210.4012">Requests:</text><text fill="#000000" font-family="sans-serif" font-size="12" lengthAdjust="spacing" textLength="55" x="7" y="227.8013">Gluten free</text><text fill="#000000" font-family="sans-serif" font-size="12" lengthAdjust="spacing" textLength="3" x="10" y="244.2014"> </text><line style="stroke:#000000;stroke-width:1.0;" x1="8" x2="211" y1="246.6014" y2="246.6014"/><line style="stroke:#000000;stroke-width:1.0;" x1="8" x2="8" y1="243.6014" y2="245.6014"/><line style="stroke:#000000;stroke-width:1.0;" x1="211" x2="211" y1="243.6014" y2="245.6014"/><line style="stroke:#000000;stroke-width:1.0;" x1="6" x2="214" y1="214.8012" y2="214.8012"/><line style="stroke:#000000;stroke-width:1.0;" x1="6" x2="214" y1="249.6014" y2="249.6014"/><line style="stroke:#000000;stroke-width:1.0;" x1="6" x2="6" y1="214.8012" y2="231.2013"/><line style="stroke:#000000;stroke-width:1.0;" x1="214" x2="214" y1="231.2013" y2="249.6014"/><line style="stroke:#000000;stroke-width:1.0;" x1="214" x2="214" y1="214.8012" y2="231.2013"/><line style="stroke:#000000;stroke-width:1.0;" x1="6" x2="6" y1="231.2013" y2="249.6014"/><rect fill="none" height="34.8002" style="stroke:#000000;stroke-width:1.0;" width="15" x="218" y="214.8012"/><line style="stroke:#000000;stroke-width:1.0;" x1="218" x2="233" y1="226.8012" y2="226.8012"/><line style="stroke:#000000;stroke-width:1.0;" x1="218" x2="233" y1="237.6014" y2="237.6014"/><path d="M225,218.8012 L228,223.8012 L222,223.8012 L225,218.8012 " fill="#000000" style="stroke:#000000;stroke-width:1.0;"/><path d="M225,246.6014 L228,241.6014 L222,241.6014 L225,246.6014 " fill="#000000" style="stroke:#000000;stroke-width:1.0;"/><rect fill="#EEEEEE" height="18.4001" rx="5" ry="5" style="stroke:#000000;stroke-width:2.5;" width="52" x="8.5" y="254.1014"/><text fill="#000000" font-family="sans-serif" font-size="12" lengthAdjust="spacing" textLength="37" x="16" y="268.1015">Submit</text><line style="stroke:#000000;stroke-width:1.0;" x1="5" x2="245" y1="5" y2="5"/><line style="stroke:#000000;stroke-width:1.0;" x1="5" x2="245" y1="276.0015" y2="276.0015"/><line style="stroke:#000000;stroke-width:1.0;" x1="5" x2="5" y1="5" y2="21.4001"/><line style="stroke:#000000;stroke-width:1.0;" x1="245" x2="245" y1="5" y2="21.4001"/><line style="stroke:#000000;stroke-width:1.0;" x1="5" x2="5" y1="250.6014" y2="276.0015"/><line style="stroke:#000000;stroke-width:1.0;" x1="245" x2="245" y1="250.6014" y2="276.0015"/><line style="stroke:#000000;stroke-width:1.0;" x1="5" x2="5" y1="197.4011" y2="213.8012"/><line style="stroke:#000000;stroke-width:1.0;" x1="245" x2="245" y1="197.4011" y2="213.8012"/><line style="stroke:#000000;stroke-width:1.0;" x1="5" x2="5" y1="127.8007" y2="144.2008"/><line style="stroke:#000000;stroke-width:1.0;" x1="245" x2="245" y1="127.8007" y2="144.2008"/><line style="stroke:#000000;stroke-width:1.0;" x1="5" x2="5" y1="91.0005" y2="107.4006"/><line style="stroke:#000000;stroke-width:1.0;" x1="245" x2="245" y1="91.0005" y2="107.4006"/><line style="stroke:#000000;stroke-width:1.0;" x1="5" x2="5" y1="54.2003" y2="70.6004"/><line style="stroke:#000000;stroke-width:1.0;" x1="245" x2="245" y1="54.2003" y2="70.6004"/><line style="stroke:#000000;stroke-width:1.0;" x1="5" x2="5" y1="21.4001" y2="37.8002"/><line style="stroke:#000000;stroke-width:1.0;" x1="245" x2="245" y1="21.4001" y2="37.8002"/><line style="stroke:#000000;stroke-width:1.0;" x1="5" x2="5" y1="213.8012" y2="250.6014"/><line style="stroke:#000000;stroke-width:1.0;" x1="245" x2="245" y1="213.8012" y2="250.6014"/><line style="stroke:#000000;stroke-width:1.0;" x1="5" x2="5" y1="144.2008" y2="197.4011"/><line style="stroke:#000000;stroke-width:1.0;" x1="245" x2="245" y1="144.2008" y2="197.4011"/><line style="stroke:#000000;stroke-width:1.0;" x1="5" x2="5" y1="107.4006" y2="127.8007"/><line style="stroke:#000000;stroke-width:1.0;" x1="245" x2="245" y1="107.4006" y2="127.8007"/><line style="stroke:#000000;stroke-width:1.0;" x1="5" x2="5" y1="70.6004" y2="91.0005"/><line style="stroke:#000000;stroke-width:1.0;" x1="245" x2="245" y1="70.6004" y2="91.0005"/><line style="stroke:#000000;stroke-width:1.0;" x1="5" x2="5" y1="37.8002" y2="54.2003"/><line style="stroke:#000000;stroke-width:1.0;" x1="245" x2="245" y1="37.8002" y2="54.2003"/><rect fill="none" height="51.2003" style="stroke:#000000;stroke-width:1.0;" width="15" x="218" y="145.2008"/><line style="stroke:#000000;stroke-width:1.0;" x1="218" x2="233" y1="157.2008" y2="157.2008"/><line style="stroke:#000000;stroke-width:1.0;" x1="218" x2="233" y1="184.4011" y2="184.4011"/><path d="M225,149.2008 L228,154.2008 L222,154.2008 L225,149.2008 " fill="#000000" style="stroke:#000000;stroke-width:1.0;"/><path d="M225,193.4011 L228,188.4011 L222,188.4011 L225,193.4011 " fill="#000000" style="stroke:#000000;stroke-width:1.0;"/><rect fill="none" height="34.8002" style="stroke:#000000;stroke-width:1.0;" width="15" x="218" y="214.8012"/><line style="stroke:#000000;stroke-width:1.0;" x1="218" x2="233" y1="226.8012" y2="226.8012"/><line style="stroke:#000000;stroke-width:1.0;" x1="218" x2="233" y1="237.6014" y2="237.6014"/><path d="M225,218.8012 L228,223.8012 L222,223.8012 L225,218.8012 " fill="#000000" style="stroke:#000000;stroke-width:1.0;"/><path d="M225,246.6014 L228,241.6014 L222,241.6014 L225,246.6014 " fill="#000000" style="stroke:#000000;stroke-width:1.0;"/><!--MD5=[2a34d24bb49a44da6c1c5656c36b390b]
@startsalt
{+
  {* Perfect Pastries }
  Tel: (939) 555-0113

  What would you like to order?
  Cannoli: 
  ^x1^
  Eclair:  
  ^x1^
  Address:
  {SI
    768 Evergreen Terrace
    Springfield
    "                         "
  }
  Requests: 
  {SI
    Gluten free
    "                         "
  }
  [Submit]
}
@endsalt

PlantUML version 1.2022.8(Sun Sep 25 09:00:33 GMT 2022)
(GPL source distribution)
Java Runtime: OpenJDK Runtime Environment
JVM: OpenJDK 64-Bit Server VM
Default Encoding: UTF-8
Language: en
Country: US
--></g></svg>